<mxfile host="app.diagrams.net" modified="2020-09-26T22:05:54.779Z" agent="5.0 (Windows NT 10.0; Win64; x64) AppleWebKit/537.36 (KHTML, like Gecko) Chrome/85.0.4183.121 Safari/537.36" etag="oPD43_pIB3GgJXhLiDXq" version="13.7.5" type="github">
  <diagram id="gZp7eF5JisObGVU2_pwe" name="Page-1">
    <mxGraphModel dx="985" dy="610" grid="1" gridSize="10" guides="1" tooltips="1" connect="1" arrows="1" fold="1" page="1" pageScale="1" pageWidth="850" pageHeight="1100" math="0" shadow="0">
      <root>
        <mxCell id="0" />
        <mxCell id="1" parent="0" />
        <mxCell id="Cg9prxOcWITBTzDmngM3-1" value="&lt;h1&gt;&lt;font style=&quot;font-size: 71px&quot; face=&quot;Lucida Console&quot;&gt;Bootstrap Budget!&lt;/font&gt;&lt;/h1&gt;" style="text;html=1;strokeColor=none;fillColor=none;align=center;verticalAlign=middle;whiteSpace=wrap;rounded=0;fontStyle=0;" vertex="1" parent="1">
          <mxGeometry x="64" y="22" width="771" height="85" as="geometry" />
        </mxCell>
        <mxCell id="Cg9prxOcWITBTzDmngM3-2" value="" style="endArrow=none;html=1;fontStyle=1;strokeWidth=3;curved=1;" edge="1" parent="1">
          <mxGeometry width="50" height="50" relative="1" as="geometry">
            <mxPoint x="46" y="43" as="sourcePoint" />
            <mxPoint x="86" y="53" as="targetPoint" />
          </mxGeometry>
        </mxCell>
        <mxCell id="Cg9prxOcWITBTzDmngM3-3" value="" style="endArrow=none;html=1;fontStyle=1;strokeWidth=3;curved=1;" edge="1" parent="1">
          <mxGeometry width="50" height="50" relative="1" as="geometry">
            <mxPoint x="46" y="53" as="sourcePoint" />
            <mxPoint x="86" y="43" as="targetPoint" />
          </mxGeometry>
        </mxCell>
        <mxCell id="Cg9prxOcWITBTzDmngM3-4" value="" style="endArrow=none;html=1;fontStyle=1;strokeWidth=3;curved=1;" edge="1" parent="1">
          <mxGeometry width="50" height="50" relative="1" as="geometry">
            <mxPoint x="46" y="63" as="sourcePoint" />
            <mxPoint x="86" y="53" as="targetPoint" />
          </mxGeometry>
        </mxCell>
        <mxCell id="Cg9prxOcWITBTzDmngM3-5" value="" style="endArrow=none;html=1;fontStyle=1;strokeWidth=3;curved=1;" edge="1" parent="1">
          <mxGeometry width="50" height="50" relative="1" as="geometry">
            <mxPoint x="46" y="53" as="sourcePoint" />
            <mxPoint x="86" y="63" as="targetPoint" />
          </mxGeometry>
        </mxCell>
        <mxCell id="Cg9prxOcWITBTzDmngM3-6" value="" style="endArrow=none;html=1;fontStyle=1;strokeWidth=3;curved=1;" edge="1" parent="1">
          <mxGeometry width="50" height="50" relative="1" as="geometry">
            <mxPoint x="46" y="73" as="sourcePoint" />
            <mxPoint x="86" y="63" as="targetPoint" />
          </mxGeometry>
        </mxCell>
        <mxCell id="Cg9prxOcWITBTzDmngM3-7" value="" style="endArrow=none;html=1;fontStyle=1;strokeWidth=3;curved=1;" edge="1" parent="1">
          <mxGeometry width="50" height="50" relative="1" as="geometry">
            <mxPoint x="46" y="63" as="sourcePoint" />
            <mxPoint x="86" y="73" as="targetPoint" />
          </mxGeometry>
        </mxCell>
        <mxCell id="Cg9prxOcWITBTzDmngM3-8" value="" style="endArrow=none;html=1;fontStyle=1;strokeWidth=3;curved=1;" edge="1" parent="1">
          <mxGeometry width="50" height="50" relative="1" as="geometry">
            <mxPoint x="46" y="83" as="sourcePoint" />
            <mxPoint x="86" y="73" as="targetPoint" />
          </mxGeometry>
        </mxCell>
        <mxCell id="Cg9prxOcWITBTzDmngM3-9" value="" style="endArrow=none;html=1;fontStyle=1;strokeWidth=3;curved=1;" edge="1" parent="1">
          <mxGeometry width="50" height="50" relative="1" as="geometry">
            <mxPoint x="46" y="73" as="sourcePoint" />
            <mxPoint x="86" y="83" as="targetPoint" />
          </mxGeometry>
        </mxCell>
        <mxCell id="Cg9prxOcWITBTzDmngM3-10" value="" style="endArrow=none;html=1;fontStyle=1;strokeWidth=3;curved=1;" edge="1" parent="1">
          <mxGeometry width="50" height="50" relative="1" as="geometry">
            <mxPoint x="46" y="83" as="sourcePoint" />
            <mxPoint x="86" y="83" as="targetPoint" />
          </mxGeometry>
        </mxCell>
      </root>
    </mxGraphModel>
  </diagram>
</mxfile>
